<?xml version="1.0" ?><!DOCTYPE svg  PUBLIC '-//W3C//DTD SVG 1.1//EN'  'http://www.w3.org/Graphics/SVG/1.1/DTD/svg11.dtd'><svg id="Lager_1" style="enable-background:new -265 388.9 64 64;" version="1.1" viewBox="-265 388.9 64 64" xml:space="preserve" xmlns="http://www.w3.org/2000/svg" xmlns:xlink="http://www.w3.org/1999/xlink"><path d="M-232.6,401.7l6,12.1c0.1,0.1,0.2,0.2,0.4,0.3l13.3,1.8c0.4,0.1,0.5,0.5,0.3,0.8l-9.7,9.4c-0.1,0.1-0.2,0.3-0.1,0.4  l2.2,13.4c0.1,0.4-0.3,0.7-0.7,0.5l-11.9-6.3c-0.1-0.1-0.3-0.1-0.4,0l-11.9,6.3c-0.3,0.2-0.7-0.1-0.7-0.5l2.3-13.3  c0-0.2,0-0.3-0.1-0.4l-9.7-9.4c-0.3-0.3-0.1-0.7,0.3-0.8l13.3-1.9c0.2,0,0.3-0.1,0.4-0.3l6-12.1  C-233.2,401.3-232.8,401.3-232.6,401.7z"/></svg>