<?xml version="1.0" ?><svg viewBox="0 0 60 60" xmlns="http://www.w3.org/2000/svg"><defs><style>.a{fill:none;stroke:#1c4db8;stroke-linecap:round;stroke-linejoin:round;stroke-width:1.5px;}.b{fill:#e82e5f;}</style></defs><title/><path class="a" d="M35.508,49.727a15.5,15.5,0,0,1-13.553,0"/><path class="a" d="M13.68,39.414a15.469,15.469,0,1,1,30.1,0"/><path class="b" d="M48.839,12.608a.5.5,0,0,0-.405-.238,7.877,7.877,0,0,0-6.757,3.749.5.5,0,0,1-.816.024,11.379,11.379,0,0,1-.088-13.859.494.494,0,0,0-.552-.76c-2.709.867-8.14,3.174-8.943,7.913-.232,1.609-.763,3.507-2.327,4.147a.5.5,0,0,1-.675-.58c1.106-4.575-.79-6.647-2-7.469a.5.5,0,0,0-.781.4,4.463,4.463,0,0,1-.776,2.332c-2.075,3.2-7.825,5.984-6.388,12.293a7.237,7.237,0,0,0,.2.7.5.5,0,0,0,.75.258A17.144,17.144,0,0,1,44.3,28.645a.5.5,0,0,0,.848.1,9.624,9.624,0,0,0,1.84-7.216.5.5,0,0,1,0-.086,20.217,20.217,0,0,1,1.882-8.364A.494.494,0,0,0,48.839,12.608Z"/><path class="a" d="M23.157,50.254s3.405-4.171.125-5.086a3.839,3.839,0,0,1-2.865-4.154h1.495a2.078,2.078,0,0,0,2.016-2.582l-1.039-4.156c-.335-1.339-4.518-3.721-9.3-1.653"/><path class="a" d="M41.133,26.575l-2.787,1.776a3.266,3.266,0,0,1-3.465.1,3.267,3.267,0,0,0-4.865,2.2L29.721,32.2a2.077,2.077,0,0,0,2.015,2.582s4.515-.7,4.807,1.474-2.17,3.979-2.17,3.979a2.483,2.483,0,0,0,2.54,3.442l4.676-.484"/><path class="a" d="M15.866,58.5l-3.2-4.007a7.161,7.161,0,0,1-1.571-4.476V41.783A2.388,2.388,0,0,1,13.478,39.4h0a2.388,2.388,0,0,1,2.388,2.388v5.97"/><path class="a" d="M23.03,58.5V53.507a7.157,7.157,0,0,0-1.2-3.98L20.007,46.8a2.229,2.229,0,0,0-3.058-.765q-.045.027-.09.057h0a2.228,2.228,0,0,0-.751,2.857l2.146,3.583"/><path class="a" d="M41.592,47.753v-5.97A2.388,2.388,0,0,1,43.98,39.4h0a2.388,2.388,0,0,1,2.388,2.388v8.234A7.167,7.167,0,0,1,44.8,54.493l-3.2,4.007"/><path class="a" d="M39.2,52.53l2.146-3.583A2.228,2.228,0,0,0,40.6,46.09h0c-.029-.02-.059-.039-.089-.057a2.229,2.229,0,0,0-3.058.765l-1.82,2.729a7.166,7.166,0,0,0-1.2,3.98V58.5"/></svg>